<svg width="81" height="118" viewBox="0 0 81 118" fill="none" xmlns="http://www.w3.org/2000/svg">
<path id="Vector" d="M81 57.2636C81 46.1539 76.5815 36.0673 69.4221 28.6925C72.4118 25.954 74.0668 22.3332 74.1422 18.2598C74.2667 11.5544 71.4202 6.11934 66.1271 2.95492C59.2391 -1.16416 48.7018 -0.954969 41.0749 3.44556C39.8082 4.17581 39.3709 5.80366 40.0947 7.0778C40.8186 8.35574 42.4322 8.79693 43.6951 8.06668C49.6782 4.6132 58.1647 4.385 63.439 7.53421C67.1299 9.74018 68.9584 13.3154 68.8679 18.1609C68.8151 20.9678 67.6728 23.2993 65.4673 25.1097C58.5831 19.6594 49.912 16.4037 40.5057 16.4037C33.4971 16.4037 26.8995 18.2103 21.1426 21.3824C20.8937 21.2683 20.6449 21.1618 20.3923 21.0477C19.0464 20.4277 17.5007 20.8423 16.6373 22.0518C16.0831 22.8277 15.9286 23.7671 16.1548 24.6343C6.3488 32.1003 0 43.9479 0 57.2636C0 67.7724 3.95481 77.3683 10.4393 84.6138C7.85683 88.2917 6.52222 92.6161 6.52222 97.4541C6.52222 105.297 11.3064 112.348 19.0049 115.859C22.1567 117.296 25.4518 118 28.6375 118C33.3689 118 37.8553 116.444 41.2484 113.428C42.3417 112.458 42.4472 110.774 41.4859 109.671C40.5245 108.568 38.8544 108.461 37.761 109.431C33.6328 113.097 27.1257 113.714 21.1765 111.006C15.3027 108.328 11.8003 103.262 11.8003 97.4541C11.8003 94.05 12.6411 91.0225 14.2923 88.3868C21.3612 94.4532 30.5112 98.1197 40.4981 98.1197C52.683 98.1197 63.6275 92.6618 71.0583 84.0471C72.0498 84.0851 73.0338 83.6591 73.6898 82.8186C74.3684 81.9514 74.5456 80.8446 74.2327 79.8481C78.5042 73.3748 81 65.6082 81 57.2636ZM70.6738 75.5769L27.7138 29.7727C42.877 35.143 56.2005 35.8657 64.9206 31.6782C71.5786 38.1477 75.7257 47.2226 75.7257 57.2598C75.7257 63.9538 73.8783 70.2218 70.6775 75.5731L70.6738 75.5769ZM40.4981 21.7323C47.7857 21.7323 54.5643 23.9763 60.1854 27.8177C53.3993 29.9286 42.4322 29.6547 27.7628 24.1398C31.7138 22.588 36.008 21.7361 40.4981 21.7361V21.7323ZM19.4913 28.761L62.7265 74.8581C47.8611 70.0202 29.7421 70.777 18.4507 77.4216C16.7994 78.3914 15.314 79.4716 13.9983 80.6431C8.56937 74.3903 5.2781 66.2092 5.2781 57.2636C5.2781 45.6062 10.8729 35.2419 19.495 28.761H19.4913ZM40.4981 92.7987C31.8458 92.7987 23.9136 89.6343 17.7759 84.3932C18.7674 83.5412 19.8758 82.7501 21.1124 82.0237C32.2982 75.4438 51.9139 75.5275 65.9574 81.7993C59.5407 88.5731 50.5001 92.8025 40.5019 92.8025L40.4981 92.7987Z" fill="white"/>
</svg>
